<?xml version="1.0" standalone="no"?>
<!DOCTYPE svg PUBLIC "-//W3C//DTD SVG 20010904//EN"
 "http://www.w3.org/TR/2001/REC-SVG-20010904/DTD/svg10.dtd">
<svg version="1.0" xmlns="http://www.w3.org/2000/svg"
 width="500.000000pt" height="500.000000pt" viewBox="0 0 500.000000 500.000000"
 preserveAspectRatio="xMidYMid meet">
<metadata>
Created by potrace 1.16, written by Peter Selinger 2001-2019
</metadata>
<g transform="translate(0.000000,500.000000) scale(0.100000,-0.100000)"
fill="#000000" stroke="none">
<path d="M1527 3591 c15 -37 14 -42 -4 -73 -10 -18 -41 -48 -68 -65 -148 -97
-189 -204 -130 -332 27 -57 84 -135 93 -127 3 3 10 -1 16 -9 8 -12 10 -4 8 32
-4 59 11 80 110 160 96 76 128 129 128 207 0 59 -19 117 -52 159 -12 16 -13
12 -10 -28 2 -25 1 -57 -2 -71 -4 -14 -51 -69 -104 -122 -122 -121 -143 -175
-107 -277 19 -54 11 -56 -16 -3 -15 29 -22 61 -22 99 0 75 30 126 126 212 115
103 128 151 66 236 -37 52 -52 52 -32 2z"/>
<path d="M2373 3235 c-115 -32 -199 -98 -249 -197 -39 -75 -45 -198 -14 -280
30 -80 104 -159 188 -200 62 -31 74 -33 167 -33 90 0 106 3 160 29 76 38 149
110 183 184 23 49 27 70 27 147 0 78 -4 98 -28 147 -37 75 -128 159 -203 188
-76 28 -165 34 -231 15z m164 -184 c26 -12 52 -35 70 -62 24 -36 28 -53 28
-109 0 -58 -4 -71 -29 -104 -40 -53 -82 -76 -139 -76 -103 0 -180 78 -180 184
0 80 39 138 113 170 47 20 87 19 137 -3z"/>
<path d="M793 3229 c-158 -31 -286 -171 -300 -328 -7 -74 17 -159 63 -228 42
-61 83 -94 162 -131 49 -23 70 -27 152 -27 83 0 103 4 155 28 33 15 79 47 102
69 l42 41 44 -49 c25 -27 71 -62 103 -79 50 -25 73 -30 149 -33 119 -5 182 18
265 94 32 31 62 64 65 74 3 10 21 24 39 30 42 14 112 73 132 112 21 41 21 110
0 143 -22 33 -74 65 -106 65 -17 0 -35 12 -54 36 -32 41 -105 78 -184 95 -47
9 -55 8 -78 -10 l-25 -20 38 -6 c84 -14 130 -27 167 -48 78 -44 72 -72 -22
-108 -108 -41 -389 -37 -457 6 -12 7 -26 29 -32 49 -13 41 -8 46 50 67 37 13
44 23 29 46 -6 9 -21 6 -61 -13 l-54 -24 -33 39 c-46 53 -111 89 -192 106 -74
16 -97 17 -159 4z m157 -187 c19 -9 46 -34 59 -54 23 -36 27 -38 77 -38 48 0
55 -3 71 -27 29 -47 86 -104 126 -124 97 -50 195 -32 338 63 152 100 232 121
285 74 22 -18 28 -32 27 -60 -1 -38 -38 -97 -72 -115 -17 -9 -18 -5 -13 64 2
41 2 82 -2 91 -11 28 -60 -27 -118 -133 -88 -160 -162 -214 -293 -216 -51 -1
-82 4 -115 19 l-45 21 55 -5 c112 -8 199 45 324 198 l61 75 -74 -66 c-40 -37
-95 -79 -123 -94 -118 -64 -291 -31 -300 58 -3 28 -7 32 -34 35 -25 2 -35 11
-52 45 l-21 42 0 -42 c-1 -41 -3 -43 -31 -43 -16 0 -34 -6 -39 -12 -79 -99
-103 -113 -184 -106 -99 8 -157 77 -157 184 0 138 132 226 250 166z"/>
<path d="M2932 3231 c-9 -5 -12 -30 -10 -87 l3 -79 128 -3 c70 -1 127 -4 127
-7 0 -2 -63 -97 -140 -210 -140 -206 -158 -241 -146 -290 l6 -25 288 2 287 3
3 83 3 82 -146 0 c-80 0 -145 2 -145 5 0 3 63 99 140 215 132 199 140 214 140
259 0 35 -4 51 -16 55 -24 9 -507 7 -522 -3z"/>
<path d="M3542 3227 c-8 -9 19 -69 106 -232 l117 -220 5 -120 5 -120 94 -3
c69 -2 97 1 103 10 4 7 8 62 8 121 l0 108 115 218 c63 120 115 223 115 229 0
16 -27 22 -103 22 -114 0 -108 4 -175 -147 l-59 -134 -58 131 c-33 72 -67 136
-76 141 -27 14 -185 11 -197 -4z"/>
<path d="M2740 2434 c-202 -54 -322 -255 -266 -446 91 -315 541 -364 686 -76
49 99 43 108 -71 108 -73 0 -80 -4 -123 -65 -35 -51 -130 -70 -199 -41 -101
42 -136 189 -67 284 70 97 215 96 279 -1 l24 -37 94 0 c108 0 109 1 68 87 -46
100 -141 170 -260 192 -74 14 -97 13 -165 -5z"/>
<path d="M3256 2427 c-17 -12 -18 -30 -14 -243 4 -203 7 -235 25 -282 31 -78
66 -117 130 -149 53 -26 67 -28 168 -28 100 0 115 3 162 28 60 31 98 74 127
144 17 42 20 76 24 281 3 173 1 236 -8 247 -16 20 -172 21 -188 2 -7 -8 -12
-100 -14 -246 l-3 -233 -28 -24 c-21 -18 -40 -24 -73 -24 -105 0 -114 25 -114
309 0 190 -2 220 -16 225 -30 12 -160 6 -178 -7z"/>
<path d="M3941 2426 c-8 -9 -11 -110 -9 -352 l3 -339 100 0 100 0 3 78 3 77
69 0 c187 0 307 93 318 248 6 87 -10 144 -55 193 -74 81 -176 109 -402 109
-88 0 -121 -4 -130 -14z m328 -181 c59 -30 64 -117 10 -157 -14 -11 -50 -22
-82 -25 l-57 -6 0 102 0 101 50 0 c28 0 64 -7 79 -15z"/>
</g>
</svg>
